<?xml version="1.0" encoding="utf-8"?>
<!-- Generator: Adobe Illustrator 24.2.3, SVG Export Plug-In . SVG Version: 6.00 Build 0)  -->
<svg version="1.1" id="레이어_1" xmlns="http://www.w3.org/2000/svg" xmlns:xlink="http://www.w3.org/1999/xlink" x="0px"
	 y="0px" viewBox="0 0 200 200" style="enable-background:new 0 0 200 200;" xml:space="preserve">
<style type="text/css">
	.st0{fill:none;stroke:#FFFFFF;stroke-width:5.0401;stroke-linecap:round;stroke-linejoin:round;stroke-miterlimit:10;}
	.st1{opacity:0.5;}
	.st2{fill:#FFFFFF;}
	.st3{fill:none;stroke:#FFFFFF;stroke-width:2;stroke-linecap:round;stroke-linejoin:round;stroke-miterlimit:10;}
</style>
<path class="st0" d="M130.5,150.5c8,15,15,21,15,21c-10,10-22,11-22,11c-6-9-8-17-9-27c0,0-71,23-98-28l12-7l-7-10c0,0,31-23,68-1
	c0,0-61-31-22-83l9,6l5-10c0,0,57,7,35,78c0,0,10-44,52-40v9l10-3C178.5,66.5,187.5,128.5,130.5,150.5z"/>
<g class="st1">
	<path class="st2" d="M84.28,28.2c5.8,1.47,17.73,5.76,25.29,17.1c8.01,12.02,9.09,28.82,3.22,49.94c-0.81,2.43-1.17,3.97-1.21,4.14
		c-0.6,2.64,0.99,5.28,3.61,5.99c0.44,0.12,0.88,0.17,1.31,0.17c2.16,0,4.14-1.39,4.81-3.55c0.39-1.27,0.77-2.54,1.12-3.79
		c3.39-10,14.07-32.92,40.77-32.92c0.09,0,0.17,0,0.26,0v4.22c0,1.59,0.75,3.09,2.03,4.04c0.88,0.65,1.94,1,3.01,1
		c0.48,0,0.97-0.07,1.45-0.21l3.99-1.2c0.18,5.82-0.14,15.34-2.93,25.82c-6.03,22.58-20.27,38.34-42.32,46.85
		c-1.35,0.52-2.41,1.59-2.91,2.94c-0.5,1.35-0.4,2.86,0.28,4.13c4.7,8.81,9.13,14.73,12.16,18.27c-4.67,3.45-9.36,5.06-12.26,5.78
		c-4.22-7.26-5.64-13.9-6.44-21.93c-0.15-1.52-0.98-2.88-2.26-3.71c-0.83-0.54-1.79-0.82-2.76-0.82c-0.52,0-1.04,0.08-1.55,0.24
		c-0.15,0.05-15.52,4.93-34.09,4.93c-12.15,0-22.91-2.05-31.98-6.09c-9.84-4.38-17.72-11.17-23.49-20.22l7.65-4.47
		c1.22-0.71,2.08-1.9,2.38-3.27c0.3-1.38,0.01-2.82-0.79-3.97l-3.92-5.59c5.31-2.83,15.25-7,27.6-7c9.5,0,18.89,2.45,27.89,7.28
		c1.78,1.07,2.89,1.64,3.01,1.7c0.73,0.37,1.51,0.55,2.28,0.55c1.78,0,3.5-0.95,4.42-2.61c1.31-2.38,0.5-5.37-1.84-6.76
		c-0.95-0.56-1.92-1.11-2.88-1.63c-5.98-3.61-25.21-16.61-29.01-36.1c-2.11-10.81,0.78-22.23,8.6-34.02l4.92,3.28
		c0.84,0.56,1.81,0.85,2.8,0.85c0.43,0,0.87-0.06,1.29-0.17c1.4-0.37,2.57-1.32,3.21-2.62L84.28,28.2 M81.5,22.5l-5,10l-9-6
		c-33.87,45.16,7.68,74.48,19.2,81.41c0.93,0.5,1.86,1.03,2.8,1.59l0,0c0,0-1.06-0.54-2.8-1.59c-10.94-5.89-21.28-7.94-30.38-7.94
		c-20.63,0-34.82,10.53-34.82,10.53l7,10l-12,7c14.2,26.82,40.55,33.17,62.36,33.17c19.67,0,35.64-5.17,35.64-5.17c1,10,3,18,9,27
		c0,0,12-1,22-11c0,0-7-6-15-21c57-22,48-84,48-84l-10,3v-9c-1.83-0.17-3.59-0.26-5.3-0.26c-30.44,0-42.22,26.46-45.59,36.47
		c-0.35,1.24-0.72,2.5-1.12,3.78c0,0,0.33-1.44,1.12-3.78C136.46,29.25,81.5,22.5,81.5,22.5L81.5,22.5z"/>
</g>
<path class="st3" d="M82.5,48.5C86,62.71,94,91,104,110"/>
<path class="st3" d="M43,125c7.52,3.4,18.42,7.32,32,9c10.65,1.32,19.9,0.87,27,0"/>
<path class="st3" d="M127.35,122.52c5.07-3.45,12.03-9.02,18.55-17.43c6.95-8.95,10.7-17.63,12.74-23.61"/>
</svg>
