<?xml version="1.0" encoding="utf-8"?>
<!-- Generator: Adobe Illustrator 24.2.3, SVG Export Plug-In . SVG Version: 6.00 Build 0)  -->
<svg version="1.1" xmlns="http://www.w3.org/2000/svg" xmlns:xlink="http://www.w3.org/1999/xlink" x="0px" y="0px"
	 viewBox="0 0 430.17 430.17" style="enable-background:new 0 0 430.17 430.17;" xml:space="preserve">
<style type="text/css">
	.st0{fill:none;stroke:#FFFFFF;stroke-width:6.5422;stroke-linecap:round;stroke-miterlimit:10;}
	.st1{fill:#FFFFFF;}
	.st2{fill:none;stroke:#FFFFFF;stroke-width:4.6812;stroke-linecap:round;stroke-miterlimit:10;}
	.st3{fill:none;stroke:#FFFFFF;stroke-width:0.8004;stroke-linecap:round;stroke-miterlimit:10;}
	.st4{fill:none;}
</style>
<g id="レイヤー_1">
</g>
<g id="レイヤー_2">
	<line class="st0" x1="322.08" y1="212.08" x2="108.08" y2="212.08"/>
	<circle class="st1" cx="238.77" cy="235.8" r="4.83"/>
	<circle class="st1" cx="195.81" cy="235.8" r="4.83"/>
	<g>
		<path class="st1" d="M217.29,264.43c-8.62,0-17.25-3.83-23.81-11.48c-0.76-0.89-0.76-2.34,0-3.23c0.76-0.89,2-0.89,2.77,0
			c11.6,13.53,30.48,13.53,42.09,0c0.76-0.89,2-0.89,2.77,0c0.76,0.89,0.76,2.34,0,3.23C234.53,260.61,225.91,264.43,217.29,264.43z
			"/>
	</g>
	<path class="st1" d="M335.61,100.32c-7.03,0.9-12.63,6.68-13.34,13.72c-0.57,5.66,1.95,10.77,6.06,13.89l-42.49,73.22
		c-0.74,1.45-2.81,1.45-3.56,0l-34.82-57.86c-0.59-1.15-1.85-1.92-3.26-2.01c-1.42-0.09-2.78,0.51-3.55,1.58l-15.44,21.21
		c-3.91,5.37-11.92,5.37-15.83,0l-15.44-21.21c-0.77-1.06-2.13-1.67-3.55-1.58c-1.42,0.09-2.67,0.86-3.26,2.01l-39.35,66.62
		c-0.65,1.26-0.04,2.74,1.37,3.32c1.41,0.58,5.89,0.03,6.54-1.22l30.82-55.57c2.03-3.92,7.48-4.33,10.07-0.76l17.45,23.97
		c0.72,0.99,1.95,1.58,3.27,1.58c1.33,0,2.55-0.59,3.27-1.59l17.45-23.97c2.6-3.57,8.04-3.16,10.07,0.76l30.82,55.57
		c0.32,0.61,2.12,1.05,3.6,1.28c0.02,0.01,0.03,0.02,0.05,0.03c0.39,0.2,0.8,0.29,1.21,0.29c0.96,0,4.7-0.52,5.17-1.44l44.1-81.8
		c2.08,0.65,4.34,0.87,6.69,0.56c6.86-0.91,12.39-6.47,13.24-13.34C354.22,107.54,345.69,99.03,335.61,100.32z M341.72,127.55
		c-0.09,0.03-0.18,0.07-0.28,0.1c-3.07,1.03-5.82-2.3-4.33-5.19l2.83-5.49c0.6-1.16,0.37-2.63-0.67-3.42
		c-1.36-1.04-3.24-0.57-3.99,0.88l-2.91,5.66c-1.47,2.85-5.7,2.6-6.72-0.44c-0.63-1.87-0.83-3.92-0.49-6.06
		c0.85-5.37,5.2-9.66,10.57-10.45c7.99-1.17,14.86,5.19,14.53,13.03C350.05,121.32,346.56,125.8,341.72,127.55z"/>
	<path class="st2" d="M226.22,261.69c-2.8,8.87,3.37,16.87,9.36,17.79c5.09,0.78,11.31-3.45,12.17-9.36
		c0.92-6.31-4.5-13.89-12.17-14.04"/>
	<g>
		<path class="st1" d="M238.86,272.43c-0.5,0-0.9-0.4-0.9-0.9c0-2.41-0.89-4.87-2.64-7.32c-2.09-2.92-4.03-3.74-5.07-4.18
			c-0.32-0.14-0.57-0.24-0.78-0.38c-0.42-0.28-0.53-0.84-0.26-1.25c0.28-0.42,0.83-0.53,1.25-0.26c0.07,0.05,0.3,0.14,0.49,0.23
			c1.2,0.51,3.44,1.46,5.83,4.8c1.98,2.76,2.98,5.58,2.98,8.37C239.77,272.02,239.36,272.43,238.86,272.43z"/>
	</g>
	<line class="st3" x1="108.08" y1="219.08" x2="322.08" y2="219.08"/>
	<circle class="st4" cx="215.33" cy="215.33" r="215.25"/>
</g>
</svg>
