<?xml version="1.0" encoding="utf-8"?>
<!-- Generator: Adobe Illustrator 24.2.3, SVG Export Plug-In . SVG Version: 6.00 Build 0)  -->
<svg version="1.1" id="레이어_1" xmlns="http://www.w3.org/2000/svg" xmlns:xlink="http://www.w3.org/1999/xlink" x="0px"
	 y="0px" viewBox="0 0 600 430.2" style="enable-background:new 0 0 600 430.2;" xml:space="preserve">
<style type="text/css">
	.st0{fill:none;stroke:#FFFFFF;stroke-width:8.5872;stroke-linecap:round;stroke-miterlimit:10;}
	.st1{fill:#FFFFFF;}
	.st2{fill:none;stroke:#FFFFFF;stroke-width:6.1445;stroke-linecap:round;stroke-miterlimit:10;}
	.st3{fill:none;stroke:#FFFFFF;stroke-width:1.0506;stroke-linecap:round;stroke-miterlimit:10;}
	.st4{opacity:0.8;}
</style>
<g id="レイヤー_1">
</g>
<g id="レイヤー_2">
	<line class="st0" x1="437" y1="174.3" x2="156.1" y2="174.3"/>
	<circle class="st1" cx="327.6" cy="205.4" r="6.3"/>
	<circle class="st1" cx="271.2" cy="205.4" r="6.3"/>
	<g>
		<path class="st1" d="M299.4,243c-11.3,0-22.7-5-31.2-15.1c-1.1-1.2-1.1-3,0-4.2s2.6-1.2,3.7,0c15.2,17.7,40,17.7,55.3,0
			c1.1-1.2,2.6-1.2,3.7,0c1.1,1.2,1.1,3,0,4.2C322,238,310.7,243,299.4,243z"/>
	</g>
	<path class="st1" d="M454.7,27.6c-9.2,1.2-16.5,8.8-17.5,18c-0.8,7.5,2.6,14.2,8,18.2l-55.8,96.1c-0.9,1.8-3.7,1.8-4.7,0l-45.7-76
		c-0.8-1.4-2.5-2.5-4.3-2.6c-1.8-0.1-3.7,0.7-4.7,2.1l-20.2,27.8c-5.1,7.1-15.6,7.1-20.7,0l-20.2-27.8c-1.1-1.4-2.8-2.2-4.7-2.1
		c-2,0.1-3.5,1.2-4.3,2.6l-51.6,87.4c-0.8,1.7,0,3.5,1.8,4.3c1.8,0.8,7.7,0,8.5-1.6l40.4-73c2.6-5.1,9.8-5.6,13.3-1.1l22.8,31.5
		c0.9,1.3,2.5,2.1,4.3,2.1c1.7,0,3.4-0.8,4.3-2.1l22.8-31.5c3.4-4.7,10.5-4.2,13.3,1.1l40.4,73c0.4,0.8,2.8,1.4,4.7,1.7l0,0
		c0.5,0.3,1.1,0.4,1.6,0.4c1.3,0,6.2-0.7,6.8-1.8L451.3,67c2.8,0.8,5.6,1.2,8.8,0.8c9.1-1.2,16.3-8.5,17.3-17.5
		C479.1,37,468,25.9,454.7,27.6z M462.7,63.4c-0.1,0-0.3,0.1-0.4,0.1c-4.1,1.3-7.6-3-5.6-6.8l3.7-7.2c0.8-1.6,0.5-3.4-0.9-4.5
		c-1.8-1.3-4.2-0.8-5.3,1.2l-3.8,7.5c-2,3.7-7.5,3.4-8.8-0.5c-0.8-2.5-1.1-5.1-0.7-8c1.2-7.1,6.8-12.7,13.9-13.7
		c10.5-1.6,19.6,6.8,19,17.1C473.6,55.2,469.1,61.1,462.7,63.4z"/>
	<path class="st2" d="M311.1,239.4c-3.7,11.7,4.5,22.2,12.3,23.4c6.7,1.1,14.8-4.6,16-12.3c1.2-8.3-5.9-18.2-16-18.4"/>
	<g>
		<path class="st1" d="M327.8,253.5c-0.7,0-1.2-0.5-1.2-1.2c0-3.2-1.2-6.4-3.4-9.6c-2.8-3.8-5.3-4.9-6.7-5.5
			c-0.4-0.1-0.8-0.3-1.1-0.5c-0.5-0.4-0.7-1.1-0.4-1.7c0.4-0.5,1.1-0.7,1.7-0.4c0.1,0,0.4,0.1,0.7,0.3c1.6,0.7,4.5,2,7.6,6.3
			c2.6,3.7,3.9,7.4,3.9,11C329,253,328.4,253.5,327.8,253.5z"/>
	</g>
	<line class="st3" x1="156.1" y1="183.5" x2="437" y2="183.5"/>
</g>
<g>
	<path class="st1" d="M159.2,200.2h-0.9c-1.2-0.4-1.9-1.5-1.9-3.1c0.1-1.9,0.7-3.3,1.8-4.1c0.9-0.7,1.8-1.1,2.8-1.1
		c0.2,0,0.4,0,0.6,0c1.8,0.4,2.6,1.3,2.6,2.7v0.3c-0.5,2.1-1.3,3.2-2.4,3.2h-0.1c-0.5,0-0.7-0.3-0.7-0.9c-0.7,0.6-1.3,1-1.7,1
		c-0.4,0-0.7-0.3-0.8-1v-0.2c0-2.1,0.7-3.2,2.2-3.2c0.2,0,0.6,0,1.2,0.1c0.5-0.2,0.9-0.2,0.9-0.2c-0.4,2-0.6,3-0.6,3.1l0.2,0.2h0.3
		c0.3-0.2,0.5-0.8,0.7-2v-0.6c0-0.8-0.7-1.4-2.1-1.8h-1.1c-1,0.3-1.7,0.9-2.1,1.7c-0.4,0.8-0.6,1.7-0.6,2.7c0.2,1.4,0.9,2.2,2,2.3
		c0.8,0,1.6-0.3,2.4-0.9l0.1,0.1C161.2,199.7,160.3,200.2,159.2,200.2z M159.5,197.8c1.1-0.8,1.6-1.6,1.6-2.5c0-0.1,0-0.2,0-0.3
		c0-0.3-0.2-0.4-0.6-0.4h-0.1c-0.9,0.2-1.3,1.1-1.3,2.8C159.2,197.6,159.3,197.8,159.5,197.8z"/>
	<path class="st1" d="M165,200.7h-0.3c-0.2,0-0.2-0.1-0.2-0.3c0.5-1.9,1.7-4.8,3.4-8.5c0.4-0.7,0.7-1,1.2-1c0.6,0,0.9,0.1,0.9,0.3
		c-0.7,0.1-1.5,1.8-2.6,5v0.1c0.9-0.9,1.7-1.3,2.5-1.3c0.2,0,0.3,0,0.5,0.1c0.4,0,0.6,0.3,0.7,0.6v0.2c-0.1,2.1-1.7,3.6-4.8,4.4
		c-0.4,0-0.6,0.1-0.6,0.4L165,200.7z M166,199.7c1.3-0.1,2.6-1.2,3.7-3.2l0.1-0.5l-0.1-0.4h-0.1c-0.9,0-1.8,0.7-2.8,2L166,199.7z"/>
	<path class="st1" d="M171.8,200.7h-0.3c-0.2,0-0.2-0.1-0.2-0.3c0.5-1.9,1.7-4.8,3.4-8.5c0.4-0.7,0.7-1,1.2-1c0.6,0,0.9,0.1,0.9,0.3
		c-0.7,0.1-1.5,1.8-2.6,5v0.1c0.9-0.9,1.7-1.3,2.5-1.3c0.2,0,0.3,0,0.5,0.1c0.4,0,0.6,0.3,0.7,0.6v0.2c-0.1,2.1-1.7,3.6-4.8,4.4
		c-0.4,0-0.6,0.1-0.6,0.4L171.8,200.7z M172.8,199.7c1.3-0.1,2.6-1.2,3.7-3.2l0.1-0.5l-0.1-0.4h-0.1c-0.9,0-1.8,0.7-2.8,2
		L172.8,199.7z"/>
	<path class="st1" d="M179,200.1c-0.5,0-0.8-0.3-0.8-0.9c0-0.2,0-0.5,0.1-0.8c0.8-2.7,1.9-4.1,3.4-4.4h0.1c0.4,0,0.7,0.2,1,0.7
		c0.5-0.5,0.9-0.8,1.3-0.8c0.1,0,0.1,0,0.1,0c0,0-0.1,0.1-0.2,0.2c-0.1,0.1-0.3,0.4-0.6,0.9c-0.2,0.6-0.4,1.2-0.6,1.8
		c-0.1,0.5-0.2,0.9-0.2,1.1c0,0.6,0.3,1.1,0.8,1.5c0.1,0.1,0.1,0.1,0.1,0.1c0,0.1-0.2,0.1-0.5,0.1c-0.8,0-1.3-0.5-1.4-1.5
		C180.6,199.4,179.7,200.1,179,200.1z M179.4,198.9c0.8,0,1.5-0.6,2.2-1.8c0.3-0.7,0.5-1.2,0.5-1.6c0-0.4-0.2-0.6-0.5-0.6
		c-0.5,0-1.1,0.5-1.8,1.4l-0.5,1c-0.2,0.5-0.2,0.8-0.2,1.1C179.1,198.8,179.2,198.9,179.4,198.9z"/>
	<path class="st1" d="M185.2,200.1c-0.2,0-0.3-0.1-0.5-0.2c1-2.3,1.5-3.7,1.5-4.2c0-0.4-0.2-0.6-0.5-0.6c-0.1,0-0.2,0-0.3,0
		c-0.1,0.1-0.2,0.2-0.3,0.2c-0.2,0-0.4-0.3-0.6-1c0.2,0.2,0.3,0.3,0.5,0.3c0.1,0,0.3-0.1,0.5-0.3c0.2-0.2,0.4-0.3,0.8-0.3h0.3
		c0.3,0.1,0.5,0.3,0.5,0.8c0,0.2,0,0.4-0.1,0.6c0.5-1.1,1.1-1.6,1.8-1.6c0.5,0,0.8,0.4,1,1c0,0.1,0.1,0.2,0.1,0.3
		c0,0.4-0.2,1.1-0.6,2.1c-0.3,0.6-0.4,1.1-0.4,1.5c0,0.5,0.2,0.8,0.5,0.9c0.3,0.1,0.4,0.2,0.4,0.2c0,0.1-0.3,0.2-1,0.2
		c-0.6,0-0.8-0.3-0.8-0.9c0-0.4,0.1-1,0.4-1.7c0.3-0.8,0.5-1.4,0.5-1.8c0-0.3-0.1-0.4-0.3-0.4c-0.1,0-0.2,0-0.3,0.1l-0.6,1
		c-0.8,1.7-1.3,2.7-1.4,3.1C186,199.8,185.7,200.1,185.2,200.1z"/>
	<path class="st1" d="M190.3,204.8c-0.9-0.2-1.3-0.8-1.3-1.7c0-0.9,0.5-1.6,1.3-2.1c0.3-0.1,0.6-0.2,0.9-0.2c0.4,0,0.7,0.1,1,0.4
		v0.1c0,0.1,0,0.2-0.2,0.2c-0.1,0-0.2,0-0.4-0.1H191c-0.9,0.2-1.3,0.8-1.4,1.7c0,0.6,0.3,1,0.7,1.2h0c1.2,0,2.3-2,3.1-5.9l-0.5,0.3
		h-0.7l-0.5-0.2c-0.6-0.3-0.9-0.7-0.9-1.3v-0.6c0.5-2.1,1.4-3.2,2.8-3.4h0.7c0.7,0.1,1,0.5,1,1.1v0.1l-0.2,0.3l0.4,0.2
		c-0.5,1.4-1.1,3.3-1.9,5.7C192.8,203.3,191.6,204.7,190.3,204.8z M193,197.6c0.4-0.1,0.9-1,1.5-2.8l0.6-0.3v-0.1
		c-0.4,0-0.6-0.1-0.6-0.3c0-0.1,0-0.2,0.1-0.3c-0.2-0.2-0.5-0.3-0.7-0.3c-0.4,0-0.8,0.2-1.2,0.6c-0.6,0.6-0.9,1.4-0.9,2.3l0,0.4
		C192.1,197.4,192.5,197.6,193,197.6z"/>
	<path class="st1" d="M201.6,200.1l-0.1-0.3c0.9-2.6,1.4-4.1,1.4-4.5c0-0.3-0.1-0.4-0.3-0.5c-0.6,0.2-1.3,1.1-1.9,2.7
		c-0.6,1.6-1.1,2.5-1.5,2.5c-0.1,0-0.2-0.1-0.2-0.2c0-0.4,0.3-1.2,0.8-2.6c0.3-0.9,0.5-1.5,0.5-1.8c0-0.3-0.1-0.4-0.3-0.4
		c-0.1,0-0.2,0-0.3,0.1l-0.6,1c-0.8,1.7-1.3,2.8-1.4,3.2c-0.2,0.5-0.5,0.8-0.9,0.8c-0.2,0-0.3-0.1-0.4-0.2c1-2.3,1.5-3.8,1.5-4.2
		c0-0.3-0.1-0.4-0.2-0.4c-0.1,0-0.3,0.1-0.5,0.3c-0.1,0.3-0.3,0.4-0.5,0.4c-0.1,0-0.3,0-0.5-0.1c-0.1-0.1-0.1-0.2-0.1-0.2
		c0-0.1,0.1-0.1,0.3-0.1c0.2,0,0.4-0.3,0.7-0.7s0.6-0.7,0.9-0.7h0.3c0.3,0.1,0.5,0.4,0.5,0.8c0,0.2,0,0.3-0.1,0.6
		c0.5-1.1,1.1-1.6,1.8-1.6c0.5,0,0.8,0.4,1,1c0.5-0.6,1-0.9,1.7-0.9l0.4,0.1c0.3,0.2,0.4,0.5,0.4,1c0,0.1,0,0.2,0,0.4
		c-0.4,2-0.9,3.5-1.5,4.5C202.4,199.9,202.1,200,201.6,200.1z"/>
	<path class="st1" d="M207.9,200.1h-0.7c-0.7-0.2-1.1-0.5-1.4-0.9l-0.2-0.6h-0.5c-0.5-0.1-0.8-0.3-0.9-0.6v-0.1
		c0.1-0.2,0.2-0.3,0.4-0.3c0.1,0,0.2,0.1,0.3,0.2c0.1,0.1,0.4,0.2,0.8,0.2l0-0.4c0.5-2.2,1.6-3.4,3.2-3.7h0.3c0.7,0,1.1,0.3,1.3,1
		v0.2c-0.1,1.4-1.2,2.6-3.5,3.5l0,0.1c0.3,0.6,0.6,0.9,1.1,0.9h0.3c0.5,0,1.4-0.4,2.6-1.3l0.1,0.1v0.1
		C210.2,199.5,209.1,200.1,207.9,200.1z M206.8,197.7c1.8-0.6,2.7-1.4,2.7-2.3l0-0.4c0-0.4-0.1-0.5-0.4-0.5
		C207.7,195,206.9,196.1,206.8,197.7z"/>
	<path class="st1" d="M212.5,200.1c-0.5,0-0.8-0.3-0.8-0.9c0-0.2,0-0.5,0.1-0.8c0.8-2.7,1.9-4.1,3.4-4.4h0.1c0.4,0,0.7,0.2,1,0.7
		c0.5-0.5,0.9-0.8,1.3-0.8c0.1,0,0.1,0,0.1,0c0,0-0.1,0.1-0.2,0.2c-0.1,0.1-0.3,0.4-0.6,0.9c-0.2,0.6-0.4,1.2-0.6,1.8
		c-0.1,0.5-0.2,0.9-0.2,1.1c0,0.6,0.3,1.1,0.8,1.5c0.1,0.1,0.1,0.1,0.1,0.1c0,0.1-0.2,0.1-0.5,0.1c-0.8,0-1.3-0.5-1.4-1.5
		C214,199.4,213.2,200.1,212.5,200.1z M212.8,198.9c0.8,0,1.5-0.6,2.2-1.8c0.3-0.7,0.5-1.2,0.5-1.6c0-0.4-0.2-0.6-0.5-0.6
		c-0.5,0-1.1,0.5-1.8,1.4l-0.5,1c-0.2,0.5-0.2,0.8-0.2,1.1C212.5,198.8,212.6,198.9,212.8,198.9z"/>
	<path class="st1" d="M218.9,200.9l-0.1-0.3c0.6-3.9,1.7-7.4,3.3-10.5l1-0.3v0.1c-0.9,2.4-1.8,5.2-2.8,8.3c-0.1,0.9-0.2,1.5-0.2,1.8
		C219.6,200.6,219.3,200.9,218.9,200.9z"/>
</g>
<image style="overflow:visible;opacity:0.1;" width="618" height="145" xlink:href="4D645A9D.png"  transform="matrix(1 0 0 1 -10.2641 278.6553)">
</image>
<g class="st4">
	
		<image style="overflow:visible;opacity:0.8;" width="616" height="144" xlink:href="4D645A97.png"  transform="matrix(1 0 0 1 -9.0068 279.2932)">
	</image>
	<g>
		<g>
			<g>
				<path class="st1" d="M51.5,314.9v69c0,1.8-0.7,3.2-2.1,4.4c-1.4,1.1-3,1.7-4.8,1.7h-9.9v-53.2c-1.7,1.3-3.8,2.6-6.4,4
					c-2.6,1.4-5.1,2.3-7.4,2.8v-14.7c2.4-0.9,5.1-2.6,8.2-5.1c3.1-2.5,5.1-5.4,6.2-8.8H51.5 M51.5,308.3H35.1
					c-2.9,0-5.4,1.9-6.3,4.6c-0.7,2.1-2,3.9-4.1,5.6c-3.2,2.6-5.2,3.7-6.4,4.1c-2.5,1-4.2,3.4-4.2,6.1v14.7c0,2,0.9,3.8,2.4,5.1
					c1.2,1,2.7,1.5,4.2,1.5c0.4,0,0.8,0,1.3-0.1c2-0.4,4-1,6-1.9v41.8c0,3.6,2.9,6.6,6.6,6.6h9.9c3.3,0,6.4-1.1,9-3.2
					c2.9-2.4,4.5-5.7,4.5-9.5v-69C58,311.3,55.1,308.3,51.5,308.3L51.5,308.3z"/>
			</g>
			<g>
				<path class="st1" d="M99.6,309.6v9h13.1v8.7c0,1.7-0.4,2.9-1.3,3.6c-0.8,0.7-2.1,1.1-3.8,1.1h-8v21.3c0,8.3,1.4,14.3,4.1,18.1
					c2.8,3.8,5.8,6,9.2,6.6v14.2c-4-0.1-8.4-1.5-13.1-4.2c-4.7-2.8-7.7-5.8-9.2-9.1c-1.5,3.3-4.7,6.3-9.6,9.1
					c-4.9,2.8-9.4,4.2-13.7,4.2v-14.2c3.6-0.6,6.9-2.8,9.8-6.6c2.9-3.8,4.3-9.8,4.3-18.1v-21.3h-8.7c-1.7,0-2.9-0.4-3.8-1.1
					c-0.8-0.7-1.3-2-1.3-3.6v-8.7h13.7v-9H99.6 M132.7,313.3v30.5h12v9.5c0,2-0.6,3.4-1.9,4.2c-1.2,0.9-2.9,1.3-5,1.3h-5.2v22.6
					c0,3.2-1.1,5.8-3.2,8c-2.2,2.2-4.8,3.2-8,3.2h-6.3v-79.4H132.7 M99.6,303.1H81.6c-3.6,0-6.6,2.9-6.6,6.6v2.4h-7.2
					c-3.6,0-6.6,2.9-6.6,6.6v8.7c0,4.5,1.9,7.1,3.4,8.5c2.1,1.9,4.8,2.8,8.1,2.8H75v14.8c0,8.5-1.6,12.3-3,14.1
					c-1.9,2.4-3.7,3.8-5.7,4.1c-3.1,0.5-5.4,3.3-5.4,6.5v14.2c0,1.8,0.7,3.4,2,4.7c1.2,1.2,2.9,1.9,4.6,1.9c0,0,0.1,0,0.1,0
					c5.3-0.1,10.9-1.8,16.8-5.1c2.4-1.4,4.5-2.8,6.3-4.3c1.7,1.5,3.7,2.9,5.9,4.3c5.6,3.3,11.1,5.1,16.3,5.2c0,0,0.1,0,0.1,0
					c0,0,0,0,0.1,0c0.7,0.2,1.4,0.3,2.1,0.3h6.3c4.9,0,9.3-1.8,12.6-5.2c3.4-3.4,5.2-7.7,5.2-12.6v-16.1c2.8-0.2,5.3-1,7.3-2.4
					c1.7-1.2,4.7-4.1,4.7-9.6v-9.5c0-3.6-2.9-6.6-6.6-6.6h-5.4v-23.9c0-3.6-2.9-6.6-6.6-6.6h-17.5c-3.2,0-5.9,2.3-6.5,5.4h-2.5v-2.4
					C106.2,306,103.2,303.1,99.6,303.1L99.6,303.1z M106.2,338.7h1.5c0.3,0,0.6,0,1,0V367c-1.2-2-2.4-6-2.4-13.5V338.7L106.2,338.7z
					"/>
			</g>
			<g>
				<path class="st1" d="M233.1,313.3v26.9h12v9.5c0,2-0.6,3.4-1.9,4.2c-1.2,0.9-2.9,1.3-5,1.3h-5.2v26.3c0,3.2-1.1,5.8-3.2,8
					c-2.2,2.2-4.8,3.2-8,3.2h-6.3v-79.4H233.1 M213,313.4v8.7c0,1.7-0.4,2.9-1.3,3.6c-0.8,0.7-2.1,1.1-3.8,1.1h-8v26.5
					c0,8.3,1.4,14.3,4.1,18.1c2.8,3.8,5.8,6,9.2,6.6v14.2c-4-0.1-8.4-1.5-13.1-4.2c-4.7-2.8-7.7-5.8-9.2-9.1
					c-1.5,3.3-4.7,6.3-9.6,9.1c-4.9,2.8-9.4,4.2-13.7,4.2v-14.2c3.6-0.6,6.9-2.8,9.8-6.6c2.9-3.8,4.3-9.8,4.3-18.1v-26.5h-8.4
					c-1.7,0-2.9-0.4-3.8-1.1c-0.8-0.7-1.3-2-1.3-3.6v-8.7H213 M233.1,306.7h-17.5c-0.6,0-1.2,0.1-1.7,0.2c-0.3,0-0.6-0.1-0.9-0.1
					h-44.4c-3.6,0-6.6,2.9-6.6,6.6v8.7c0,4.5,1.9,7.1,3.4,8.5c2.1,1.9,4.8,2.8,8.1,2.8h1.8v20c0,8.5-1.6,12.3-3,14.1
					c-1.9,2.4-3.7,3.8-5.7,4.1c-3.1,0.5-5.4,3.3-5.4,6.5v14.2c0,1.8,0.7,3.4,2,4.7c1.2,1.2,2.9,1.9,4.6,1.9c0,0,0.1,0,0.1,0
					c5.3-0.1,10.9-1.8,16.8-5.1c2.4-1.4,4.5-2.8,6.3-4.3c1.7,1.5,3.7,2.9,5.9,4.3c5.6,3.3,11.1,5.1,16.3,5.2c0,0,0.1,0,0.1,0
					c0,0,0,0,0.1,0c0.7,0.2,1.4,0.3,2.1,0.3h6.3c4.9,0,9.3-1.8,12.6-5.2c3.4-3.4,5.2-7.7,5.2-12.6v-19.8c2.8-0.2,5.3-1,7.3-2.4
					c1.7-1.2,4.7-4.1,4.7-9.6v-9.5c0-3.6-2.9-6.6-6.6-6.6h-5.4v-20.3C239.7,309.6,236.8,306.7,233.1,306.7L233.1,306.7z
					 M206.6,333.5h1.4c0.4,0,0.7,0,1,0V367c-1.2-2-2.4-6-2.4-13.5V333.5L206.6,333.5z"/>
			</g>
			<g>
				<path class="st1" d="M318.2,313.3v69.2c0,2.6-1,5-2.9,7c-1.9,2-4.4,3.1-7.3,3.1h-5.8v-37.7h-2.3v29c0,2.5-0.8,4.6-2.5,6.2
					c-1.6,1.6-3.8,2.4-6.5,2.4h-7v-79.3h16v27.2h2.3v-27.2H318.2 M281.5,313.5v35.9c0,15.3-2.8,26.2-8.5,32.8
					c-5.6,6.6-14.2,9.9-25.6,9.9v-13.7c5.6,0,10-2.2,13-6.6c2.5-3.7,3.9-9.1,4.3-16.2h-12.3c-1.4,0-2.6-0.4-3.5-1.3
					c-0.9-0.9-1.4-2.1-1.4-3.5v-8.6h17.4V327h-12.4c-1.4,0-2.6-0.5-3.6-1.4c-1-0.9-1.5-2.2-1.5-3.9v-8.2H281.5 M318.2,306.7h-16
					c-0.4,0-0.8,0-1.2,0.1c-0.4-0.1-0.8-0.1-1.2-0.1h-16c-0.7,0-1.3,0.1-1.9,0.3c-0.2,0-0.3,0-0.5,0h-34.1c-3.6,0-6.6,2.9-6.6,6.6
					v8.2c0,4.5,2,7.2,3.7,8.7c2.2,2,5,3.1,8,3.1h5.8v2h-10.8c-3.6,0-6.6,2.9-6.6,6.6v8.6c0,3.2,1.2,6.1,3.4,8.2
					c2.1,2.1,4.9,3.2,8.1,3.2h4.8c-0.7,2.9-1.5,4.8-2.3,5.9c-1.8,2.6-4.1,3.7-7.5,3.7c-3.6,0-6.6,2.9-6.6,6.6V392
					c0,3.6,2.9,6.6,6.6,6.6c12.9,0,23-3.8,29.9-11.4v5.4c0,3.6,2.9,6.6,6.6,6.6h7c2.6,0,5-0.5,7.1-1.5c1.1,0.9,2.6,1.5,4.2,1.5h5.8
					c4.8,0,9-1.8,12.2-5.2c3-3.2,4.6-7.2,4.6-11.5v-69.2C324.7,309.6,321.8,306.7,318.2,306.7L318.2,306.7z"/>
			</g>
			<g>
				<path class="st1" d="M415.3,313.3v68.2c0,3.2-1.1,5.8-3.2,8c-2.2,2.2-4.8,3.2-8,3.2h-6.3v-2.9c-4.1,1.2-7.1,1.9-9,2.2
					c-2,0.3-4.5,0.4-7.5,0.4h-24.8c-2,0-3.5-0.5-4.5-1.5c-1-1-1.6-2.5-1.6-4.5v-41.9h23.4v-17.5H355c-1.7,0-2.9-0.3-3.7-1
					c-0.8-0.7-1.2-1.9-1.2-3.5v-8.9h41.3v39.7c0,1.7-0.4,2.9-1.2,3.5c-0.8,0.7-2,1-3.7,1H368v21.3h14.4c1.9,0,4.3-0.2,7.3-0.7
					c2.8-0.5,5.5-1.1,8.1-2v-63H415.3 M415.3,306.7h-17.5c-1.2,0-2.3,0.3-3.3,0.9c-0.9-0.5-1.9-0.7-3-0.7h-41.3
					c-3.6,0-6.6,2.9-6.6,6.6v8.9c0,4.5,1.8,7.1,3.4,8.5c2,1.8,4.7,2.7,8,2.7h12.3v4.4h-16.9c-3.6,0-6.6,2.9-6.6,6.6v41.9
					c0,4.7,1.9,7.6,3.5,9.2c1.6,1.5,4.4,3.4,9.1,3.4h24.8c3.4,0,6.1-0.2,8.4-0.5c1.1-0.1,2.3-0.4,3.9-0.7c1.1,1,2.6,1.6,4.3,1.6h6.3
					c4.9,0,9.3-1.8,12.6-5.2c3.4-3.4,5.2-7.7,5.2-12.6v-68.2C421.9,309.6,418.9,306.7,415.3,306.7L415.3,306.7z M374.5,364.2h12.1
					c1.7,0,3.2-0.2,4.6-0.7v7.7c-0.9,0.2-1.7,0.4-2.6,0.5c-2.5,0.4-4.7,0.6-6.2,0.6h-7.9V364.2L374.5,364.2z"/>
			</g>
			<g>
				<path class="st1" d="M470.2,313.1v17.4c0,7.1,2.8,12.8,8.3,17c5.5,4.2,11.3,6.3,17.3,6.3v13.7c-7.2,0-14.1-1.8-20.7-5.3
					c-6.6-3.5-11.2-7.6-13.7-12.3c-2.5,4.7-7.1,8.8-13.7,12.3c-6.6,3.5-13.5,5.3-20.7,5.3v-13.7c6,0,11.8-2.1,17.3-6.3
					c5.5-4.2,8.3-9.8,8.3-17v-17.4H470.2 M498.4,379v7c0,2-0.6,3.5-1.9,4.7c-1.3,1.2-2.9,1.7-4.9,1.7h-60c-2,0-3.6-0.6-4.9-1.7
					c-1.3-1.2-1.9-2.7-1.9-4.7v-7H498.4 M470.2,306.5h-17.6c-3.6,0-6.6,2.9-6.6,6.6v17.4c0,5.1-1.8,8.8-5.7,11.7
					c-4.4,3.3-8.8,4.9-13.3,4.9c-3.6,0-6.6,2.9-6.6,6.6v13.7c0,2.1,1,4,2.6,5.2c-2.8,0.8-4.9,3.3-4.9,6.3v7c0,3.8,1.4,7.2,4.1,9.6
					c2.5,2.2,5.7,3.4,9.2,3.4h60c3.6,0,6.9-1.2,9.3-3.4c2.7-2.4,4.1-5.7,4.1-9.5v-7c0-3.1-2.2-5.7-5.1-6.4c1.5-1.2,2.5-3.1,2.5-5.2
					v-13.7c0-3.6-2.9-6.6-6.6-6.6c-4.6,0-8.9-1.6-13.3-4.9c-3.9-2.9-5.7-6.7-5.7-11.7v-17.4C476.8,309.5,473.8,306.5,470.2,306.5
					L470.2,306.5z M439.3,372.5c3.9-1,7.8-2.5,11.5-4.5c4.2-2.2,7.7-4.7,10.6-7.5c2.9,2.8,6.4,5.3,10.6,7.5c3.7,2,7.6,3.5,11.5,4.5
					H439.3L439.3,372.5z"/>
			</g>
			<g>
				<path class="st1" d="M573.2,313.5v8.6c0,1.7-0.4,2.9-1.3,3.7c-0.9,0.8-2.1,1.2-3.8,1.2h-43.6v7.7h48.2v8.6
					c0,1.7-0.4,2.9-1.3,3.7c-0.9,0.8-2.1,1.2-3.8,1.2h-43.1v8.4h49.8v8.5c0,1.7-0.4,2.9-1.3,3.7c-0.9,0.8-2.1,1.2-3.8,1.2h-57
					c-1.7,0-2.9-0.4-3.8-1.2c-0.9-0.8-1.3-2-1.3-3.7v-51.4H573.2 M576.7,379v7c0,2-0.6,3.5-1.9,4.7c-1.3,1.2-2.9,1.7-4.9,1.7h-60
					c-2,0-3.6-0.6-4.9-1.7c-1.3-1.2-1.9-2.7-1.9-4.7v-7H576.7 M573.2,307H507c-3.6,0-6.6,2.9-6.6,6.6v51.4c0,3.6,1.2,6,2.5,7.5
					c-3.6,0.1-6.5,3-6.5,6.6v7c0,3.8,1.4,7.2,4.1,9.6c2.5,2.2,5.7,3.4,9.2,3.4h60c3.6,0,6.9-1.2,9.3-3.4c2.7-2.4,4.1-5.7,4.1-9.5v-7
					c0-3.1-2.2-5.7-5.1-6.4c1.3-1.5,2.6-4,2.6-7.7v-8.5c0-2.6-1.6-4.9-3.8-6c1.2-1.6,2.3-3.9,2.3-7.3v-8.6c0-1.9-0.8-3.6-2.1-4.8
					c1.3-1.5,2.6-4,2.6-7.7v-8.6C579.8,309.9,576.8,307,573.2,307L573.2,307z"/>
			</g>
		</g>
	</g>
</g>
</svg>
