<?xml version="1.0" encoding="utf-8"?>
<!-- Generator: Adobe Illustrator 24.2.3, SVG Export Plug-In . SVG Version: 6.00 Build 0)  -->
<svg version="1.1" id="레이어_1" xmlns="http://www.w3.org/2000/svg" xmlns:xlink="http://www.w3.org/1999/xlink" x="0px"
	 y="0px" viewBox="0 0 200 200" style="enable-background:new 0 0 200 200;" xml:space="preserve">
<style type="text/css">
	.st0{fill:none;stroke:#FFFFFF;stroke-width:2.5201;stroke-linecap:round;stroke-linejoin:round;stroke-miterlimit:10;}
	.st1{opacity:0.5;}
	.st2{fill:#FFFFFF;}
	.st3{fill:none;stroke:#FFFFFF;stroke-width:1.26;stroke-linecap:round;stroke-linejoin:round;stroke-miterlimit:10;}
</style>
<path class="st0" d="M194,83.86c-4.22-3.74-10.87-6.8-18.83-6.32c6.08-5.15,8.78-11.97,9.24-17.58
	c-16.31-6.81-40.57,1.02-59.89,13.16c-0.54,0.34-1.02,0.67-1.54,1.01c0.17-0.84,0.34-1.64,0.5-2.52
	c4.08-22.45,2.31-47.88-10.08-60.48c-5.04,2.52-10.36,7.56-12.88,15.12c-2.52-7.56-7.84-12.6-12.88-15.12
	C75.26,23.72,73.49,49.15,77.57,71.6c0.19,1.03,0.39,1.97,0.58,2.94c-0.72-0.47-1.41-0.94-2.18-1.42
	C56.66,60.97,32.4,53.15,16.09,59.96c0.46,5.62,3.16,12.43,9.24,17.58c-7.96-0.48-14.61,2.58-18.83,6.32
	c7.08,16.19,30.02,27.3,52.38,31.88c1.88,0.38,3.65,0.71,5.35,0.99c-0.77,0.67-1.53,1.32-2.34,2.06
	C45,134.13,30.95,155.4,33.13,172.93c5.53,1.06,12.82,0.29,19.42-4.18c-2.59,7.54-1.43,14.77,1.04,19.83
	c17.5-2.48,34.36-21.59,44.76-41.9c0.69-1.34,1.31-2.61,1.9-3.87c0.6,1.25,1.21,2.52,1.9,3.87c10.4,20.31,27.27,39.42,44.76,41.9
	c2.47-5.06,3.63-12.3,1.04-19.83c6.6,4.47,13.88,5.24,19.42,4.18c2.18-17.53-11.87-38.81-28.76-54.16
	c-0.81-0.73-1.56-1.38-2.34-2.06c1.7-0.28,3.47-0.6,5.35-0.99C163.98,111.17,186.92,100.05,194,83.86z"/>
<g class="st1">
	<path class="st2" d="M88.69,17.74c2.47,1.94,5.4,5.14,7.06,10.1c0.69,2.06,2.61,3.45,4.78,3.45s4.1-1.39,4.78-3.45
		c1.66-4.97,4.59-8.16,7.06-10.1c7.71,10.92,10.15,31.04,6.16,52.97c-0.1,0.56-0.21,1.08-0.32,1.6l-0.17,0.84
		c-0.4,1.99,0.44,4.01,2.11,5.15c0.85,0.58,1.84,0.87,2.83,0.87c0.95,0,1.9-0.27,2.73-0.81c0.23-0.15,0.44-0.29,0.66-0.43
		c0.27-0.18,0.54-0.36,0.83-0.54c15.07-9.48,30.87-14.91,43.35-14.91c2.92,0,5.63,0.3,8.1,0.9c-0.88,3.01-2.75,6.93-6.75,10.32
		c-1.65,1.4-2.23,3.71-1.42,5.72c0.77,1.92,2.63,3.16,4.68,3.16c0.1,0,0.2,0,0.3-0.01c0.44-0.03,0.89-0.04,1.33-0.04
		c4.59,0,8.19,1.41,10.67,2.83c-7.26,11.22-25.03,20.97-46.86,25.44c-1.7,0.35-3.39,0.66-5.16,0.95c-1.92,0.32-3.49,1.72-4.03,3.6
		c-0.53,1.88,0.07,3.89,1.54,5.17l0.54,0.47c0.56,0.49,1.13,0.98,1.72,1.52c16.49,14.99,26.79,32.45,27.3,45.81
		c-2.97-0.04-7.33-0.74-11.74-3.73c-0.86-0.58-1.84-0.87-2.83-0.87c-1.08,0-2.16,0.35-3.06,1.04c-1.72,1.32-2.41,3.59-1.7,5.64
		c1.7,4.95,1.32,9.27,0.54,12.31c-12.76-3.98-26.92-18.49-37.08-38.32c-0.73-1.42-1.36-2.74-1.84-3.73
		c-0.84-1.76-2.61-2.87-4.55-2.87s-3.71,1.12-4.55,2.87c-0.47,0.99-1.11,2.31-1.84,3.73c-10.16,19.83-24.33,34.33-37.08,38.32
		c-0.78-3.04-1.17-7.36,0.54-12.31c0.71-2.05,0.02-4.32-1.7-5.64c-0.9-0.69-1.98-1.04-3.06-1.04c-0.99,0-1.97,0.29-2.83,0.87
		c-4.41,2.99-8.77,3.69-11.74,3.73c0.51-13.35,10.81-30.82,27.3-45.81c0.59-0.54,1.15-1.03,1.72-1.51l0.54-0.47
		c1.47-1.28,2.07-3.3,1.54-5.17c-0.53-1.88-2.1-3.28-4.03-3.6c-1.77-0.29-3.46-0.61-5.16-0.95c-21.83-4.46-39.6-14.22-46.86-25.44
		c2.47-1.43,6.08-2.83,10.67-2.83c0.44,0,0.89,0.01,1.33,0.04c0.1,0.01,0.2,0.01,0.3,0.01c2.05,0,3.91-1.24,4.68-3.16
		c0.81-2.01,0.24-4.32-1.42-5.72c-4-3.39-5.87-7.31-6.75-10.32c2.47-0.6,5.18-0.9,8.1-0.9c12.48,0,28.28,5.44,43.35,14.91
		c0.49,0.31,0.94,0.61,1.39,0.9l0.71,0.47c0.84,0.55,1.8,0.82,2.76,0.82c0.99,0,1.98-0.29,2.83-0.87c1.68-1.14,2.51-3.18,2.11-5.17
		l-0.15-0.75c-0.14-0.68-0.28-1.36-0.41-2.09C78.54,48.78,80.98,28.65,88.69,17.74 M113.4,11.12c-5.04,2.52-10.36,7.56-12.88,15.12
		c-2.52-7.56-7.84-12.6-12.88-15.12C75.26,23.72,73.49,49.15,77.57,71.6c0.19,1.03,0.39,1.97,0.58,2.94
		c-0.72-0.47-1.41-0.94-2.18-1.42c-14.38-9.04-31.5-15.69-46.04-15.69c-4.99,0-9.68,0.78-13.85,2.52
		c0.46,5.62,3.16,12.43,9.24,17.58c-0.55-0.03-1.1-0.05-1.63-0.05c-7.23,0-13.27,2.89-17.19,6.37c7.08,16.19,30.02,27.3,52.38,31.88
		c1.88,0.38,3.65,0.71,5.35,0.99c-0.77,0.67-1.53,1.32-2.34,2.06C45,134.13,30.95,155.4,33.13,172.93c1.42,0.27,2.95,0.42,4.56,0.42
		c4.66,0,9.95-1.28,14.86-4.6c-2.59,7.54-1.43,14.77,1.04,19.83c17.5-2.48,34.36-21.59,44.76-41.9c0.69-1.34,1.31-2.61,1.9-3.87
		c0.6,1.25,1.21,2.52,1.9,3.87c10.4,20.31,27.27,39.42,44.76,41.9c2.47-5.06,3.63-12.3,1.04-19.83c4.91,3.33,10.19,4.6,14.86,4.6
		c1.61,0,3.14-0.15,4.56-0.42c2.18-17.53-11.87-38.81-28.76-54.16c-0.81-0.73-1.56-1.38-2.34-2.06c1.7-0.28,3.47-0.6,5.35-0.99
		c22.36-4.57,45.3-15.69,52.38-31.88c-3.92-3.48-9.96-6.37-17.19-6.37c-0.54,0-1.08,0.02-1.63,0.05c6.08-5.15,8.78-11.97,9.24-17.58
		c-4.17-1.74-8.86-2.52-13.85-2.52c-14.54,0-31.66,6.64-46.04,15.69c-0.54,0.34-1.02,0.67-1.54,1c0.17-0.84,0.34-1.64,0.5-2.52
		C127.57,49.15,125.79,23.72,113.4,11.12L113.4,11.12z"/>
</g>
<circle class="st3" cx="100.25" cy="104.9" r="15.12"/>
<line class="st3" x1="73.16" y1="91.4" x2="80.72" y2="96.44"/>
<line class="st3" x1="70.64" y1="101.48" x2="78.2" y2="101.48"/>
<line class="st3" x1="126.08" y1="91.4" x2="118.52" y2="96.44"/>
<line class="st3" x1="128.6" y1="101.48" x2="121.04" y2="101.48"/>
<line class="st3" x1="78.2" y1="131.72" x2="84.5" y2="125.42"/>
<line class="st3" x1="116" y1="125.42" x2="122.3" y2="131.72"/>
<line class="st3" x1="100.88" y1="81.32" x2="100.88" y2="73.76"/>
</svg>
