<?xml version="1.0" encoding="utf-8"?>
<!-- Generator: Adobe Illustrator 24.2.3, SVG Export Plug-In . SVG Version: 6.00 Build 0)  -->
<svg version="1.1" id="레이어_1" xmlns="http://www.w3.org/2000/svg" xmlns:xlink="http://www.w3.org/1999/xlink" x="0px"
	 y="0px" viewBox="0 0 200 200" style="enable-background:new 0 0 200 200;" xml:space="preserve">
<style type="text/css">
	.st0{fill:none;stroke:#FFFFFF;stroke-width:5.0401;stroke-linecap:round;stroke-linejoin:round;stroke-miterlimit:10;}
	.st1{opacity:0.5;}
	.st2{fill:#FFFFFF;}
	.st3{fill:none;stroke:#FFFFFF;stroke-width:2;stroke-linecap:round;stroke-linejoin:round;stroke-miterlimit:10;}
</style>
<path class="st0" d="M133.5,54.5c4-10,5-32,5-32s21,2,29,18c0,0-3,14-18,22c0,0,66,31,13,89c-49.15,53.79-150,12-150,12s19-29,33-61
	C56.98,76.27,87.5,7.5,133.5,54.5z"/>
<g class="st1">
	<path class="st2" d="M143.15,28.55c5.55,1.48,14.22,4.92,18.92,12.55c-1.23,3.48-5.04,11.67-14.94,16.95
		c-1.68,0.9-2.72,2.67-2.67,4.58c0.05,1.91,1.17,3.62,2.9,4.43c0.26,0.12,25.62,12.27,30.05,34.6c2.82,14.21-3.45,29.83-18.62,46.44
		c-15.66,17.14-38.76,25.83-68.64,25.83c-29.8,0-58.3-8.82-70.06-12.97c6.13-9.86,19.41-32.14,30.04-56.44
		c3.86-8.81,11.03-25.22,20.5-38.56c10.57-14.9,21.36-22.45,32.09-22.45c8.62,0,17.77,4.88,27.2,14.51c0.96,0.98,2.26,1.51,3.6,1.51
		c0.33,0,0.66-0.03,0.99-0.1c1.67-0.33,3.06-1.49,3.69-3.07C141.15,48.96,142.56,36.04,143.15,28.55 M138.5,22.5c0,0-1,22-5,32
		c-11.21-11.45-21.49-16.03-30.8-16.03c-28.93,0-48.51,44.18-57.2,64.03c-14,32-33,61-33,61s37.33,15.47,77.64,15.47
		c25.94,0,53.12-6.41,72.36-27.47c53-58-13-89-13-89c15-8,18-22,18-22C159.5,24.5,138.5,22.5,138.5,22.5L138.5,22.5z"/>
</g>
<path class="st3" d="M133.5,69.5c0,0-26,64-92,84"/>
<path class="st3" d="M89.5,56.5c-0.39,4.94-0.37,12.39,2,21c1.89,6.87,4.67,12.25,7,16"/>
<path class="st3" d="M59.5,102.5c-0.27,2.25-0.56,7.36,2,13c2.13,4.71,5.26,7.6,7,9"/>
<path class="st3" d="M121.5,111.5c4.07,2.39,11.71,6.13,22,7c12.79,1.08,22.61-2.9,27-5"/>
<path class="st3" d="M80.5,148.5c4.66,1.7,11.14,3.49,19,4c10.72,0.7,19.45-1.27,25-3"/>
</svg>
