<?xml version="1.0" encoding="utf-8"?>
<!-- Generator: Adobe Illustrator 24.2.3, SVG Export Plug-In . SVG Version: 6.00 Build 0)  -->
<svg version="1.1" id="레이어_1" xmlns="http://www.w3.org/2000/svg" xmlns:xlink="http://www.w3.org/1999/xlink" x="0px"
	 y="0px" viewBox="0 0 200 200" style="enable-background:new 0 0 200 200;" xml:space="preserve">
<style type="text/css">
	.st0{fill:none;stroke:#FFFFFF;stroke-width:5.0422;stroke-linecap:round;stroke-linejoin:round;stroke-miterlimit:10;}
	.st1{fill:none;stroke:#FFFFFF;stroke-width:5;stroke-linecap:round;stroke-linejoin:round;stroke-miterlimit:10;}
	.st2{fill:none;stroke:#FFFFFF;stroke-width:5.4301;stroke-linecap:round;stroke-linejoin:round;stroke-miterlimit:10;}
	.st3{fill:none;stroke:#FFFFFF;stroke-linecap:round;stroke-linejoin:round;stroke-miterlimit:10;}
</style>
<g>
	<line class="st0" x1="100.5" y1="22.78" x2="100.5" y2="71.5"/>
	<line class="st0" x1="76.5" y1="22.95" x2="100" y2="46.85"/>
	<line class="st0" x1="125" y1="22.95" x2="101.5" y2="46.85"/>
	<line class="st0" x1="76.5" y1="39.95" x2="100" y2="63.85"/>
	<line class="st0" x1="125" y1="39.95" x2="101.5" y2="63.85"/>
</g>
<g>
	<line class="st1" x1="48.98" y1="47.98" x2="80.5" y2="79.5"/>
	<line class="st1" x1="29.2" y1="62.14" x2="62.71" y2="62.42"/>
	<line class="st1" x1="63.49" y1="27.85" x2="63.78" y2="61.36"/>
	<line class="st1" x1="41.22" y1="74.16" x2="74.74" y2="74.44"/>
	<line class="st1" x1="75.51" y1="39.87" x2="75.8" y2="73.38"/>
</g>
<g>
	<line class="st1" x1="48.98" y1="151.02" x2="80.5" y2="119.5"/>
	<line class="st1" x1="63.14" y1="170.8" x2="63.42" y2="137.29"/>
	<line class="st1" x1="28.85" y1="136.51" x2="62.36" y2="136.22"/>
	<line class="st1" x1="75.16" y1="158.78" x2="75.44" y2="125.26"/>
	<line class="st1" x1="40.87" y1="124.49" x2="74.38" y2="124.2"/>
</g>
<g>
	<line class="st0" x1="100.5" y1="176.22" x2="100.5" y2="127.5"/>
	<line class="st0" x1="124.5" y1="176.05" x2="101" y2="152.15"/>
	<line class="st0" x1="76" y1="176.05" x2="99.5" y2="152.15"/>
	<line class="st0" x1="124.5" y1="159.05" x2="101" y2="135.15"/>
	<line class="st0" x1="76" y1="159.05" x2="99.5" y2="135.15"/>
</g>
<g>
	<line class="st1" x1="152.02" y1="151.02" x2="120.5" y2="119.5"/>
	<line class="st1" x1="171.8" y1="136.86" x2="138.29" y2="136.58"/>
	<line class="st1" x1="137.51" y1="171.15" x2="137.22" y2="137.64"/>
	<line class="st1" x1="159.78" y1="124.84" x2="126.26" y2="124.56"/>
	<line class="st1" x1="125.49" y1="159.13" x2="125.2" y2="125.62"/>
</g>
<g>
	<line class="st0" x1="177.22" y1="99.5" x2="128.5" y2="99.5"/>
	<line class="st0" x1="177.05" y1="75.5" x2="153.15" y2="99"/>
	<line class="st0" x1="177.05" y1="124" x2="153.15" y2="100.5"/>
	<line class="st0" x1="160.05" y1="75.5" x2="136.15" y2="99"/>
	<line class="st0" x1="160.05" y1="124" x2="136.15" y2="100.5"/>
</g>
<g>
	<line class="st0" x1="23.78" y1="99.5" x2="72.5" y2="99.5"/>
	<line class="st0" x1="23.95" y1="75.5" x2="47.85" y2="99"/>
	<line class="st0" x1="23.95" y1="124" x2="47.85" y2="100.5"/>
	<line class="st0" x1="40.95" y1="75.5" x2="64.85" y2="99"/>
	<line class="st0" x1="40.95" y1="124" x2="64.85" y2="100.5"/>
</g>
<g>
	<line class="st1" x1="152.02" y1="47.98" x2="120.5" y2="79.5"/>
	<line class="st1" x1="137.86" y1="28.2" x2="137.58" y2="61.71"/>
	<line class="st1" x1="172.15" y1="62.49" x2="138.64" y2="62.78"/>
	<line class="st1" x1="125.84" y1="40.22" x2="125.56" y2="73.74"/>
	<line class="st1" x1="160.13" y1="74.51" x2="126.62" y2="74.8"/>
</g>
<polygon class="st2" points="112.1,71.5 88.9,71.5 72.5,87.9 72.5,111.1 88.9,127.5 112.1,127.5 128.5,111.1 128.5,87.9 "/>
<polygon class="st3" points="107.33,83 93.67,83 84,92.67 84,106.33 93.67,116 107.33,116 117,106.33 117,92.67 "/>
</svg>
